<svg xmlns="http://www.w3.org/2000/svg" viewBox="0 0 48 48"><path fill="#EA4335" d="M24 9.5c3.54 0 6.71 1.22 9.21 3.6l6.85-6.85C35.9 2.38 30.47 0 24 0 14.62 0 6.51 5.38 2.56 13.22l7.98 6.19C12.43 13.72 17.7 9.5 24 9.5z"/><path fill="#4285F4" d="M46.98 24.5c0-.85-.12-1.68-.28-2.47H24v7.92h12.61c-.62 3.09-2.8 5.62-5.92 7.37l7.73 6c4.51-4.41 7.18-10.87 7.18-18.82z"/><path fill="#FBBC04" d="M10.53 28.59c-.48-1.45-.76-2.99-.76-4.59s.27-3.14.76-4.59L2.56 13.22C1.04 16.1 0 19.98 0 24s1.04 7.9 2.56 10.78l7.97-6.19z"/><path fill="#34A853" d="M24 48c6.48 0 11.93-2.13 15.96-5.83l-7.73-6c-3.12 2.05-5.64 3.67-9.33 3.67-6.23 0-11.53-4.22-13.47-9.91l-7.97 6.19C6.51 42.62 14.62 48 24 48z"/><path fill="none" d="M0 0h48v48H0z"/></svg>